<svg width="166" height="21" viewBox="0 0 166 21" fill="none" xmlns="http://www.w3.org/2000/svg">
<path d="M0.453125 -4.76837e-07H4.24219L7.89063 6.89062H8.04688L11.6953 -4.76837e-07H15.4844L9.64844 10.3437V16H6.28906V10.3437L0.453125 -4.76837e-07ZM20.2246 16.2344C18.9902 16.2344 17.9277 15.9844 17.0371 15.4844C16.1517 14.9792 15.4694 14.2656 14.9902 13.3437C14.5111 12.4167 14.2715 11.3203 14.2715 10.0547C14.2715 8.82031 14.5111 7.73698 14.9902 6.80469C15.4694 5.8724 16.1439 5.14583 17.0137 4.625C17.8887 4.10417 18.9147 3.84375 20.0918 3.84375C20.8835 3.84375 21.6204 3.97135 22.3027 4.22656C22.9902 4.47656 23.5892 4.85417 24.0996 5.35937C24.6152 5.86458 25.0163 6.5 25.3027 7.26562C25.5892 8.02604 25.7324 8.91667 25.7324 9.9375V10.8516H15.5996V8.78906H22.5996C22.5996 8.3099 22.4954 7.88542 22.2871 7.51563C22.0788 7.14583 21.7897 6.85677 21.4199 6.64844C21.0553 6.4349 20.6309 6.32812 20.1465 6.32812C19.6413 6.32812 19.1934 6.44531 18.8027 6.67969C18.4173 6.90885 18.1152 7.21875 17.8965 7.60937C17.6777 7.99479 17.5658 8.42448 17.5605 8.89844V10.8594C17.5605 11.4531 17.6699 11.9661 17.8887 12.3984C18.1126 12.8307 18.4277 13.1641 18.834 13.3984C19.2402 13.6328 19.722 13.75 20.2793 13.75C20.6491 13.75 20.9876 13.6979 21.2949 13.5938C21.6022 13.4896 21.8652 13.3333 22.084 13.125C22.3027 12.9167 22.4694 12.6615 22.584 12.3594L25.6621 12.5625C25.5059 13.3021 25.1855 13.9479 24.7012 14.5C24.222 15.0469 23.6022 15.474 22.8418 15.7813C22.0866 16.0833 21.2142 16.2344 20.2246 16.2344ZM31.3262 16.2266C30.5605 16.2266 29.8783 16.0938 29.2793 15.8281C28.6803 15.5573 28.2064 15.1589 27.8574 14.6328C27.5137 14.1016 27.3418 13.4401 27.3418 12.6484C27.3418 11.9818 27.4642 11.4219 27.709 10.9687C27.9538 10.5156 28.2871 10.151 28.709 9.875C29.1309 9.59896 29.61 9.39062 30.1465 9.25C30.6882 9.10937 31.2559 9.01042 31.8496 8.95312C32.5475 8.88021 33.11 8.8125 33.5371 8.75C33.9642 8.68229 34.2741 8.58333 34.4668 8.45312C34.6595 8.32292 34.7559 8.13021 34.7559 7.875V7.82812C34.7559 7.33333 34.5996 6.95052 34.2871 6.67969C33.9798 6.40885 33.5423 6.27344 32.9746 6.27344C32.3757 6.27344 31.8991 6.40625 31.5449 6.67187C31.1908 6.93229 30.9564 7.26042 30.8418 7.65625L27.7637 7.40625C27.9199 6.67708 28.2272 6.04687 28.6855 5.51562C29.1439 4.97917 29.735 4.56771 30.459 4.28125C31.1882 3.98958 32.0319 3.84375 32.9902 3.84375C33.6569 3.84375 34.2949 3.92187 34.9043 4.07812C35.5189 4.23437 36.0632 4.47656 36.5371 4.80469C37.0163 5.13281 37.3939 5.55469 37.6699 6.07031C37.946 6.58073 38.084 7.19271 38.084 7.90625V16H34.9277V14.3359H34.834C34.6413 14.7109 34.3835 15.0417 34.0605 15.3281C33.7376 15.6094 33.3496 15.8307 32.8965 15.9922C32.4434 16.1484 31.9199 16.2266 31.3262 16.2266ZM32.2793 13.9297C32.7689 13.9297 33.2012 13.8333 33.5762 13.6406C33.9512 13.4427 34.2454 13.1771 34.459 12.8438C34.6725 12.5104 34.7793 12.1328 34.7793 11.7109V10.4375C34.6751 10.5052 34.5319 10.5677 34.3496 10.625C34.1725 10.6771 33.972 10.7266 33.748 10.7734C33.5241 10.8151 33.3001 10.8542 33.0762 10.8906C32.8522 10.9219 32.6491 10.9505 32.4668 10.9766C32.0762 11.0339 31.735 11.125 31.4434 11.25C31.1517 11.375 30.9251 11.5443 30.7637 11.7578C30.6022 11.9661 30.5215 12.2266 30.5215 12.5391C30.5215 12.9922 30.6855 13.3385 31.0137 13.5781C31.347 13.8125 31.7689 13.9297 32.2793 13.9297ZM43.9941 9.0625V16H40.666V-4.76837e-07H43.9004V6.11719H44.041C44.3118 5.40885 44.7493 4.85417 45.3535 4.45312C45.9577 4.04687 46.7155 3.84375 47.627 3.84375C48.4603 3.84375 49.1868 4.02604 49.8066 4.39062C50.4316 4.75 50.916 5.26823 51.2598 5.94531C51.6087 6.61719 51.7806 7.42187 51.7754 8.35937V16H48.4473V8.95312C48.4525 8.21354 48.265 7.63802 47.8848 7.22656C47.5098 6.8151 46.9837 6.60937 46.3066 6.60937C45.8535 6.60937 45.4525 6.70573 45.1035 6.89844C44.7598 7.09115 44.4889 7.3724 44.291 7.74219C44.0983 8.10677 43.9993 8.54688 43.9941 9.0625ZM56.3398 16.2031C55.8242 16.2031 55.3815 16.0208 55.0117 15.6562C54.6471 15.2865 54.4648 14.8437 54.4648 14.3281C54.4648 13.8177 54.6471 13.3802 55.0117 13.0156C55.3815 12.651 55.8242 12.4687 56.3398 12.4687C56.8398 12.4687 57.2773 12.651 57.6523 13.0156C58.0273 13.3802 58.2148 13.8177 58.2148 14.3281C58.2148 14.6719 58.1263 14.987 57.9492 15.2734C57.7773 15.5547 57.5508 15.7812 57.2695 15.9531C56.9883 16.1198 56.6784 16.2031 56.3398 16.2031ZM61.0098 16V-4.76837e-07H64.3926V13.2109H71.252V16H61.0098ZM76.8516 16.2266C76.0859 16.2266 75.4036 16.0938 74.8047 15.8281C74.2057 15.5573 73.7318 15.1589 73.3828 14.6328C73.0391 14.1016 72.8672 13.4401 72.8672 12.6484C72.8672 11.9818 72.9896 11.4219 73.2344 10.9687C73.4792 10.5156 73.8125 10.151 74.2344 9.875C74.6563 9.59896 75.1354 9.39062 75.6719 9.25C76.2135 9.10937 76.7813 9.01042 77.375 8.95312C78.0729 8.88021 78.6354 8.8125 79.0625 8.75C79.4896 8.68229 79.7995 8.58333 79.9922 8.45312C80.1849 8.32292 80.2813 8.13021 80.2813 7.875V7.82812C80.2813 7.33333 80.125 6.95052 79.8125 6.67969C79.5052 6.40885 79.0677 6.27344 78.5 6.27344C77.901 6.27344 77.4245 6.40625 77.0703 6.67187C76.7161 6.93229 76.4818 7.26042 76.3672 7.65625L73.2891 7.40625C73.4453 6.67708 73.7526 6.04687 74.2109 5.51562C74.6693 4.97917 75.2604 4.56771 75.9844 4.28125C76.7135 3.98958 77.5573 3.84375 78.5156 3.84375C79.1823 3.84375 79.8203 3.92187 80.4297 4.07812C81.0443 4.23437 81.5885 4.47656 82.0625 4.80469C82.5417 5.13281 82.9193 5.55469 83.1953 6.07031C83.4714 6.58073 83.6094 7.19271 83.6094 7.90625V16H80.4531V14.3359H80.3594C80.1667 14.7109 79.9089 15.0417 79.5859 15.3281C79.263 15.6094 78.875 15.8307 78.4219 15.9922C77.9688 16.1484 77.4453 16.2266 76.8516 16.2266ZM77.8047 13.9297C78.2943 13.9297 78.7266 13.8333 79.1016 13.6406C79.4766 13.4427 79.7708 13.1771 79.9844 12.8438C80.1979 12.5104 80.3047 12.1328 80.3047 11.7109V10.4375C80.2005 10.5052 80.0573 10.5677 79.875 10.625C79.6979 10.6771 79.4974 10.7266 79.2734 10.7734C79.0495 10.8151 78.8255 10.8542 78.6016 10.8906C78.3776 10.9219 78.1745 10.9505 77.9922 10.9766C77.6016 11.0339 77.2604 11.125 76.9688 11.25C76.6771 11.375 76.4505 11.5443 76.2891 11.7578C76.1276 11.9661 76.0469 12.2266 76.0469 12.5391C76.0469 12.9922 76.2109 13.3385 76.5391 13.5781C76.8724 13.8125 77.2943 13.9297 77.8047 13.9297ZM89.5195 9.0625V16H86.1914V4H89.3633V6.11719H89.5039C89.7695 5.41927 90.2148 4.86719 90.8398 4.46094C91.4648 4.04948 92.2227 3.84375 93.1133 3.84375C93.9466 3.84375 94.6732 4.02604 95.293 4.39062C95.9128 4.75521 96.3945 5.27604 96.7383 5.95312C97.082 6.625 97.2539 7.42708 97.2539 8.35937V16H93.9258V8.95312C93.931 8.21875 93.7435 7.64583 93.3633 7.23438C92.9831 6.81771 92.4596 6.60937 91.793 6.60937C91.3451 6.60937 90.9492 6.70573 90.6055 6.89844C90.2669 7.09115 90.0013 7.3724 89.8086 7.74219C89.6211 8.10677 89.5247 8.54688 89.5195 9.0625ZM105.283 20.75C104.205 20.75 103.281 20.6016 102.51 20.3047C101.744 20.013 101.135 19.6146 100.682 19.1094C100.229 18.6042 99.9342 18.0365 99.7988 17.4062L102.877 16.9922C102.971 17.2318 103.119 17.4557 103.322 17.6641C103.525 17.8724 103.794 18.0391 104.127 18.1641C104.465 18.2943 104.877 18.3594 105.361 18.3594C106.085 18.3594 106.682 18.1823 107.15 17.8281C107.624 17.4792 107.861 16.8932 107.861 16.0703V13.875H107.721C107.575 14.2083 107.356 14.5234 107.064 14.8203C106.773 15.1172 106.398 15.3594 105.939 15.5469C105.481 15.7344 104.934 15.8281 104.299 15.8281C103.398 15.8281 102.577 15.6198 101.838 15.2031C101.104 14.7812 100.518 14.138 100.08 13.2734C99.6478 12.4036 99.4316 11.3047 99.4316 9.97656C99.4316 8.61719 99.653 7.48177 100.096 6.57031C100.538 5.65885 101.127 4.97656 101.861 4.52344C102.601 4.07031 103.411 3.84375 104.291 3.84375C104.963 3.84375 105.525 3.95833 105.979 4.1875C106.432 4.41146 106.796 4.69271 107.072 5.03125C107.354 5.36458 107.57 5.69271 107.721 6.01562H107.846V4H111.15V16.1172C111.15 17.138 110.9 17.9922 110.4 18.6797C109.9 19.3672 109.208 19.8828 108.322 20.2266C107.442 20.5755 106.429 20.75 105.283 20.75ZM105.354 13.3281C105.89 13.3281 106.343 13.1953 106.713 12.9297C107.088 12.6589 107.374 12.2734 107.572 11.7734C107.775 11.2682 107.877 10.6641 107.877 9.96094C107.877 9.25781 107.778 8.64844 107.58 8.13281C107.382 7.61198 107.096 7.20833 106.721 6.92187C106.346 6.63542 105.89 6.49219 105.354 6.49219C104.807 6.49219 104.346 6.64062 103.971 6.9375C103.596 7.22917 103.312 7.63542 103.119 8.15625C102.926 8.67708 102.83 9.27865 102.83 9.96094C102.83 10.6536 102.926 11.2526 103.119 11.7578C103.317 12.2578 103.601 12.6458 103.971 12.9219C104.346 13.1927 104.807 13.3281 105.354 13.3281ZM121.494 10.8906V4H124.822V16H121.627V13.8203H121.502C121.231 14.5234 120.781 15.0885 120.15 15.5156C119.525 15.9427 118.762 16.1563 117.861 16.1563C117.059 16.1563 116.354 15.974 115.744 15.6094C115.135 15.2448 114.658 14.7266 114.314 14.0547C113.976 13.3828 113.804 12.5781 113.799 11.6406V4H117.127V11.0469C117.132 11.7552 117.322 12.3151 117.697 12.7266C118.072 13.138 118.575 13.3437 119.205 13.3437C119.606 13.3437 119.981 13.2526 120.33 13.0703C120.679 12.8828 120.96 12.6068 121.174 12.2422C121.393 11.8776 121.499 11.4271 121.494 10.8906ZM130.906 16.2266C130.141 16.2266 129.458 16.0938 128.859 15.8281C128.26 15.5573 127.786 15.1589 127.438 14.6328C127.094 14.1016 126.922 13.4401 126.922 12.6484C126.922 11.9818 127.044 11.4219 127.289 10.9687C127.534 10.5156 127.867 10.151 128.289 9.875C128.711 9.59896 129.19 9.39062 129.727 9.25C130.268 9.10937 130.836 9.01042 131.43 8.95312C132.128 8.88021 132.69 8.8125 133.117 8.75C133.544 8.68229 133.854 8.58333 134.047 8.45312C134.24 8.32292 134.336 8.13021 134.336 7.875V7.82812C134.336 7.33333 134.18 6.95052 133.867 6.67969C133.56 6.40885 133.122 6.27344 132.555 6.27344C131.956 6.27344 131.479 6.40625 131.125 6.67187C130.771 6.93229 130.536 7.26042 130.422 7.65625L127.344 7.40625C127.5 6.67708 127.807 6.04687 128.266 5.51562C128.724 4.97917 129.315 4.56771 130.039 4.28125C130.768 3.98958 131.612 3.84375 132.57 3.84375C133.237 3.84375 133.875 3.92187 134.484 4.07812C135.099 4.23437 135.643 4.47656 136.117 4.80469C136.596 5.13281 136.974 5.55469 137.25 6.07031C137.526 6.58073 137.664 7.19271 137.664 7.90625V16H134.508V14.3359H134.414C134.221 14.7109 133.964 15.0417 133.641 15.3281C133.318 15.6094 132.93 15.8307 132.477 15.9922C132.023 16.1484 131.5 16.2266 130.906 16.2266ZM131.859 13.9297C132.349 13.9297 132.781 13.8333 133.156 13.6406C133.531 13.4427 133.826 13.1771 134.039 12.8438C134.253 12.5104 134.359 12.1328 134.359 11.7109V10.4375C134.255 10.5052 134.112 10.5677 133.93 10.625C133.753 10.6771 133.552 10.7266 133.328 10.7734C133.104 10.8151 132.88 10.8542 132.656 10.8906C132.432 10.9219 132.229 10.9505 132.047 10.9766C131.656 11.0339 131.315 11.125 131.023 11.25C130.732 11.375 130.505 11.5443 130.344 11.7578C130.182 11.9661 130.102 12.2266 130.102 12.5391C130.102 12.9922 130.266 13.3385 130.594 13.5781C130.927 13.8125 131.349 13.9297 131.859 13.9297ZM145.652 20.75C144.574 20.75 143.65 20.6016 142.879 20.3047C142.113 20.013 141.504 19.6146 141.051 19.1094C140.598 18.6042 140.303 18.0365 140.168 17.4062L143.246 16.9922C143.34 17.2318 143.488 17.4557 143.691 17.6641C143.895 17.8724 144.163 18.0391 144.496 18.1641C144.835 18.2943 145.246 18.3594 145.73 18.3594C146.454 18.3594 147.051 18.1823 147.52 17.8281C147.993 17.4792 148.23 16.8932 148.23 16.0703V13.875H148.09C147.944 14.2083 147.725 14.5234 147.434 14.8203C147.142 15.1172 146.767 15.3594 146.309 15.5469C145.85 15.7344 145.303 15.8281 144.668 15.8281C143.767 15.8281 142.947 15.6198 142.207 15.2031C141.473 14.7812 140.887 14.138 140.449 13.2734C140.017 12.4036 139.801 11.3047 139.801 9.97656C139.801 8.61719 140.022 7.48177 140.465 6.57031C140.908 5.65885 141.496 4.97656 142.23 4.52344C142.97 4.07031 143.78 3.84375 144.66 3.84375C145.332 3.84375 145.895 3.95833 146.348 4.1875C146.801 4.41146 147.165 4.69271 147.441 5.03125C147.723 5.36458 147.939 5.69271 148.09 6.01562H148.215V4H151.52V16.1172C151.52 17.138 151.27 17.9922 150.77 18.6797C150.27 19.3672 149.577 19.8828 148.691 20.2266C147.811 20.5755 146.798 20.75 145.652 20.75ZM145.723 13.3281C146.259 13.3281 146.712 13.1953 147.082 12.9297C147.457 12.6589 147.743 12.2734 147.941 11.7734C148.145 11.2682 148.246 10.6641 148.246 9.96094C148.246 9.25781 148.147 8.64844 147.949 8.13281C147.751 7.61198 147.465 7.20833 147.09 6.92187C146.715 6.63542 146.259 6.49219 145.723 6.49219C145.176 6.49219 144.715 6.64062 144.34 6.9375C143.965 7.22917 143.681 7.63542 143.488 8.15625C143.296 8.67708 143.199 9.27865 143.199 9.96094C143.199 10.6536 143.296 11.2526 143.488 11.7578C143.686 12.2578 143.97 12.6458 144.34 12.9219C144.715 13.1927 145.176 13.3281 145.723 13.3281ZM159.637 16.2344C158.402 16.2344 157.34 15.9844 156.449 15.4844C155.564 14.9792 154.882 14.2656 154.402 13.3437C153.923 12.4167 153.684 11.3203 153.684 10.0547C153.684 8.82031 153.923 7.73698 154.402 6.80469C154.882 5.8724 155.556 5.14583 156.426 4.625C157.301 4.10417 158.327 3.84375 159.504 3.84375C160.296 3.84375 161.033 3.97135 161.715 4.22656C162.402 4.47656 163.001 4.85417 163.512 5.35937C164.027 5.86458 164.428 6.5 164.715 7.26562C165.001 8.02604 165.145 8.91667 165.145 9.9375V10.8516H155.012V8.78906H162.012C162.012 8.3099 161.908 7.88542 161.699 7.51563C161.491 7.14583 161.202 6.85677 160.832 6.64844C160.467 6.4349 160.043 6.32812 159.559 6.32812C159.053 6.32812 158.605 6.44531 158.215 6.67969C157.829 6.90885 157.527 7.21875 157.309 7.60937C157.09 7.99479 156.978 8.42448 156.973 8.89844V10.8594C156.973 11.4531 157.082 11.9661 157.301 12.3984C157.525 12.8307 157.84 13.1641 158.246 13.3984C158.652 13.6328 159.134 13.75 159.691 13.75C160.061 13.75 160.4 13.6979 160.707 13.5938C161.014 13.4896 161.277 13.3333 161.496 13.125C161.715 12.9167 161.882 12.6615 161.996 12.3594L165.074 12.5625C164.918 13.3021 164.598 13.9479 164.113 14.5C163.634 15.0469 163.014 15.474 162.254 15.7813C161.499 16.0833 160.626 16.2344 159.637 16.2344Z" fill="#58CC02"/>
</svg>
